<?xml version="1.0" standalone="no"?>
<!DOCTYPE svg PUBLIC "-//W3C//DTD SVG 20010904//EN"
 "http://www.w3.org/TR/2001/REC-SVG-20010904/DTD/svg10.dtd">
<svg version="1.0" xmlns="http://www.w3.org/2000/svg"
 width="600.000000pt" height="600.000000pt" viewBox="0 0 600.000000 600.000000"
 preserveAspectRatio="xMidYMid meet">
<metadata>
Created by potrace 1.14, written by Peter Selinger 2001-2017
</metadata>
<g transform="translate(0.000000,600.000000) scale(0.100000,-0.100000)"
fill="#000000" stroke="none">
<path d="M3025 4471 c-55 -15 -114 -35 -132 -44 -57 -30 -158 -47 -260 -46
-67 2 -119 -4 -163 -16 -36 -9 -78 -19 -95 -22 -46 -8 -62 -19 -161 -115 -110
-107 -137 -128 -229 -176 -83 -44 -181 -137 -217 -207 -27 -52 -44 -124 -52
-210 -6 -71 -25 -109 -106 -210 -91 -114 -104 -157 -104 -320 0 -107 3 -128
28 -190 76 -193 75 -190 66 -470 -4 -112 13 -179 65 -263 25 -40 45 -77 45
-82 0 -5 28 -24 63 -41 125 -63 183 -112 215 -180 11 -26 34 -59 50 -76 16
-16 37 -43 45 -60 18 -34 61 -64 121 -83 61 -20 238 -14 301 10 26 10 131 2
208 -16 4 -1 19 -2 35 -3 24 -1 25 -3 9 -12 -10 -6 -35 -8 -55 -5 -44 8 -33
-2 43 -39 174 -83 333 -106 499 -70 67 14 88 24 130 59 32 27 66 46 90 50 21
4 84 29 140 55 104 50 156 69 264 95 34 9 81 24 105 35 23 10 53 22 67 26 39
11 187 163 225 230 37 66 60 150 70 260 7 78 13 140 21 200 3 22 29 85 58 140
29 55 60 129 69 165 18 72 17 203 -2 238 -6 11 -11 35 -11 52 0 17 -5 40 -11
51 -6 11 -17 44 -24 72 -7 29 -27 80 -44 114 -20 40 -35 90 -42 140 -22 165
-31 197 -92 326 -55 115 -135 201 -214 229 -26 10 -72 35 -102 58 -29 22 -65
43 -80 47 -27 6 -53 26 -212 154 -178 144 -232 166 -424 174 -86 3 -114 0
-200 -24z m1102 -1703 c-3 -7 -5 -2 -5 12 0 14 2 19 5 13 2 -7 2 -19 0 -25z
m-979 -1093 c-4 -4 -35 -10 -70 -12 -35 -3 -65 -9 -68 -14 -7 -10 -97 -4 -125
7 -14 7 3 10 60 14 160 10 209 11 203 5z m-180 -51 c-10 -9 -158 -12 -164 -3
-3 5 33 9 82 9 48 0 85 -3 82 -6z"/>
</g>
</svg>
